<svg width="125" height="47" viewBox="0 0 125 47" fill="none" xmlns="http://www.w3.org/2000/svg">
<g filter="url(#filter0_d_2306_126)">
<path d="M19.7289 20.9918L23.6009 8.25582H29.4249L23.0889 26.1118H16.3369L10.0009 8.25582H15.8569L19.7289 20.9918ZM30.6401 17.1518C30.6401 15.3171 30.9815 13.7065 31.6641 12.3198C32.3681 10.9331 33.3175 9.86648 34.5121 9.11982C35.7068 8.37315 37.0401 7.99981 38.5121 7.99981C39.7708 7.99981 40.8695 8.25581 41.8081 8.76781C42.7681 9.27982 43.5041 9.95182 44.0161 10.7838V8.25582H49.4881V26.1118H44.0161V23.5838C43.4828 24.4158 42.7361 25.0878 41.7761 25.5998C40.8375 26.1118 39.7388 26.3678 38.4801 26.3678C37.0295 26.3678 35.7068 25.9945 34.5121 25.2478C33.3175 24.4798 32.3681 23.4025 31.6641 22.0158C30.9815 20.6078 30.6401 18.9865 30.6401 17.1518ZM44.0161 17.1838C44.0161 15.8185 43.6321 14.7411 42.8641 13.9518C42.1175 13.1625 41.2001 12.7678 40.1121 12.7678C39.0241 12.7678 38.0961 13.1625 37.3281 13.9518C36.5815 14.7198 36.2081 15.7865 36.2081 17.1518C36.2081 18.5171 36.5815 19.6051 37.3281 20.4158C38.0961 21.2051 39.0241 21.5998 40.1121 21.5998C41.2001 21.5998 42.1175 21.2051 42.8641 20.4158C43.6321 19.6265 44.0161 18.5491 44.0161 17.1838ZM60.2309 7.99981C61.4896 7.99981 62.5882 8.25581 63.5269 8.76781C64.4869 9.27982 65.2229 9.95182 65.7349 10.7838V8.25582H71.2069V26.0798C71.2069 27.7225 70.8762 29.2051 70.2149 30.5278C69.5749 31.8718 68.5829 32.9385 67.2389 33.7278C65.9162 34.5171 64.2629 34.9118 62.2789 34.9118C59.6336 34.9118 57.4896 34.2825 55.8469 33.0238C54.2042 31.7865 53.2656 30.1011 53.0309 27.9678H58.4389C58.6096 28.6505 59.0149 29.1838 59.6549 29.5678C60.2949 29.9731 61.0842 30.1758 62.0229 30.1758C63.1536 30.1758 64.0496 29.8451 64.7109 29.1838C65.3936 28.5438 65.7349 27.5091 65.7349 26.0798V23.5518C65.2016 24.3838 64.4656 25.0665 63.5269 25.5998C62.5882 26.1118 61.4896 26.3678 60.2309 26.3678C58.7589 26.3678 57.4256 25.9945 56.2309 25.2478C55.0362 24.4798 54.0869 23.4025 53.3829 22.0158C52.7002 20.6078 52.3589 18.9865 52.3589 17.1518C52.3589 15.3171 52.7002 13.7065 53.3829 12.3198C54.0869 10.9331 55.0362 9.86648 56.2309 9.11982C57.4256 8.37315 58.7589 7.99981 60.2309 7.99981ZM65.7349 17.1838C65.7349 15.8185 65.3509 14.7411 64.5829 13.9518C63.8362 13.1625 62.9189 12.7678 61.8309 12.7678C60.7429 12.7678 59.8149 13.1625 59.0469 13.9518C58.3002 14.7198 57.9269 15.7865 57.9269 17.1518C57.9269 18.5171 58.3002 19.6051 59.0469 20.4158C59.8149 21.2051 60.7429 21.5998 61.8309 21.5998C62.9189 21.5998 63.8362 21.2051 64.5829 20.4158C65.3509 19.6265 65.7349 18.5491 65.7349 17.1838ZM81.9496 7.99981C83.2083 7.99981 84.307 8.25581 85.2456 8.76781C86.2056 9.27982 86.9416 9.95182 87.4536 10.7838V8.25582H92.9256V26.0798C92.9256 27.7225 92.595 29.2051 91.9336 30.5278C91.2936 31.8718 90.3016 32.9385 88.9576 33.7278C87.635 34.5171 85.9816 34.9118 83.9976 34.9118C81.3523 34.9118 79.2083 34.2825 77.5656 33.0238C75.923 31.7865 74.9843 30.1011 74.7496 27.9678H80.1576C80.3283 28.6505 80.7336 29.1838 81.3736 29.5678C82.0136 29.9731 82.803 30.1758 83.7416 30.1758C84.8723 30.1758 85.7683 29.8451 86.4296 29.1838C87.1123 28.5438 87.4536 27.5091 87.4536 26.0798V23.5518C86.9203 24.3838 86.1843 25.0665 85.2456 25.5998C84.307 26.1118 83.2083 26.3678 81.9496 26.3678C80.4776 26.3678 79.1443 25.9945 77.9496 25.2478C76.755 24.4798 75.8056 23.4025 75.1016 22.0158C74.419 20.6078 74.0776 18.9865 74.0776 17.1518C74.0776 15.3171 74.419 13.7065 75.1016 12.3198C75.8056 10.9331 76.755 9.86648 77.9496 9.11982C79.1443 8.37315 80.4776 7.99981 81.9496 7.99981ZM87.4536 17.1838C87.4536 15.8185 87.0696 14.7411 86.3016 13.9518C85.555 13.1625 84.6376 12.7678 83.5496 12.7678C82.4616 12.7678 81.5336 13.1625 80.7656 13.9518C80.019 14.7198 79.6456 15.7865 79.6456 17.1518C79.6456 18.5171 80.019 19.6051 80.7656 20.4158C81.5336 21.2051 82.4616 21.5998 83.5496 21.5998C84.6376 21.5998 85.555 21.2051 86.3016 20.4158C87.0696 19.6265 87.4536 18.5491 87.4536 17.1838ZM114.516 8.25582V26.1118H109.044V23.6798C108.49 24.4691 107.732 25.1091 106.772 25.5998C105.834 26.0691 104.788 26.3038 103.636 26.3038C102.271 26.3038 101.066 26.0051 100.02 25.4078C98.9751 24.7891 98.1644 23.9038 97.5884 22.7518C97.0124 21.5998 96.7244 20.2451 96.7244 18.6878V8.25582H102.164V17.9518C102.164 19.1465 102.474 20.0745 103.092 20.7358C103.711 21.3971 104.543 21.7278 105.588 21.7278C106.655 21.7278 107.498 21.3971 108.116 20.7358C108.735 20.0745 109.044 19.1465 109.044 17.9518V8.25582H114.516Z" fill="white"/>
</g>
<defs>
<filter id="filter0_d_2306_126" x="0" y="0" width="124.516" height="46.9116" filterUnits="userSpaceOnUse" color-interpolation-filters="sRGB">
<feFlood flood-opacity="0" result="BackgroundImageFix"/>
<feColorMatrix in="SourceAlpha" type="matrix" values="0 0 0 0 0 0 0 0 0 0 0 0 0 0 0 0 0 0 127 0" result="hardAlpha"/>
<feOffset dy="2"/>
<feGaussianBlur stdDeviation="5"/>
<feComposite in2="hardAlpha" operator="out"/>
<feColorMatrix type="matrix" values="0 0 0 0 0 0 0 0 0 0 0 0 0 0 0 0 0 0 0.25 0"/>
<feBlend mode="normal" in2="BackgroundImageFix" result="effect1_dropShadow_2306_126"/>
<feBlend mode="normal" in="SourceGraphic" in2="effect1_dropShadow_2306_126" result="shape"/>
</filter>
</defs>
</svg>
